<?xml version="1.0" encoding="UTF-8"?><svg id="Layer_1" xmlns="http://www.w3.org/2000/svg" viewBox="0 0 64 64"><circle cx="32" cy="32" r="32" fill="#efefef"/><g><path d="M56.13,38.47v-2.61s-.08-.02-.13-.03c.03,1.93-1.23,2.8-2.78,3.44,.22-.43,.49-.84,.64-1.3,.14-.45,.15-.95,.21-1.42-.61,.62-1.16,1.17-1.69,1.74-.07,.08-.09,.28-.06,.39,.48,1.39,.43,2.79-.09,4.11-.32,.82-.92,1.52-1.4,2.28-.04-.02-.08-.03-.12-.05,.14-.39,.27-.77,.41-1.17q-.62,.18-.71,.77c-.16,1.03-.81,1.72-1.85,1.97-.19,.05-.38,.08-.73,.16,.27,.33,.48,.58,.7,.85-.48,.2-.89,.69-1.56,.38-.09-.04-.33,.15-.43,.28-1.26,1.67-2.49,3.37-3.76,5.03-.36,.47-.78,.92-1.26,1.26-2.83,2.04-5.99,3.28-9.47,3.43-2.9,.13-5.61-.75-8.18-2.06-.31-.16-.61-.33-.92-.48-1.46-.72-2.61-1.76-3.51-3.14-1.14-1.76-2.41-3.43-3.61-5.15-.2-.29-.42-.45-.79-.49-1.4-.16-1.95-.75-2.34-2.5-.28,.15-.54,.3-.93,.52,.1-.5,.15-.9,.26-1.28,.11-.39,.29-.76,.43-1.14-.03-.03-.07-.06-.1-.08-.33,.29-.65,.57-1.04,.91-.21-.92,.21-1.6,.68-2.33-1.19-.27-2.28-.69-3.33-1.56h1.31c-1.09-.19-2.13-.46-2.98-1.21,0-.06,.01-.11,.02-.17h2.41l-.02-.06c-.59-.14-1.19-.28-1.9-.44,.2-.18,.27-.26,.35-.31,.99-.63,1.39-1.56,1.35-2.72-.02-.67-.12-.73-.73-.42-.08,.04-.17,.08-.38,.05,.15-.4,.31-.8,.46-1.21-1.28-1.33-1.77-2.54-1.42-3.44,.31,.43,.63,.89,.96,1.35,.04-.02,.09-.04,.13-.06-.66-1.48-.89-2.93,.29-4.32,.56,1.12,1.43,1.54,2.35,1.2,1.09-.4,1.7-1.48,1.48-2.57-.12-.59-.23-1.18-.27-1.77-.07-1.05,.25-1.97,1.02-2.71,.04-.04,.07-.1,.19-.3-.55,.1-.96,.17-1.49,.26,.76-1.63,2.07-2.51,3.54-3.22-.03-.05-.06-.1-.08-.15-.71,.35-1.42,.7-2.13,1.05-.04-.02-.07-.04-.11-.06,.18-.38,.33-.78,.55-1.12,.56-.86,1.38-1.41,2.28-1.87,.23-.12,.47-.32,.6-.54,1.49-2.45,3.53-4.3,6.06-5.61,.31-.16,.61-.4,.85-.65,1.09-1.15,2.49-1.51,4.02-1.69-.04-.07-.08-.14-.13-.24,.83-.33,1.67-.3,2.46,.03,.63,.27,1.24,.26,1.88,.2,1.54-.14,3.06,.07,4.57,.39,.08,.02,.14,.06,.21,.18-.24,.01-.49,.03-.8,.04,1.91,.4,3.69,.99,5.36,1.89,2.54,1.37,4.55,3.3,5.98,5.83,.81,1.43,1.87,2.59,3.5,3.06,.5,.14,1.03,.17,1.61,.35-.5,.23-1,.46-1.55,.7,1.01,.83,2.08,1.63,2.14,3.15-.72-.76-1.41-1.56-2.53-1.73,.13,.16,.27,.32,.39,.49,.76,1.08,.73,2.28,.5,3.51-.08,.42-.19,.86-.16,1.28,.09,1.39,1.7,2.35,2.92,1.72,.38-.19,.64-.61,.97-.94,.84,.53,.98,1.86,.35,3.98,.45-.09,.5-.14,.91-.95,.35,.89-.1,1.85-1.34,2.79,1.34,.75,2.27,1.79,2.36,3.39,.06,1.04-.22,1.99-.69,2.9-.06,0-.11-.01-.17-.02Zm-34.26,7.01c.15-.05,.25-.08,.38-.13v.71c.14-.04,.25-.07,.41-.11-.02,.3-.03,.56-.05,.83,.15-.08,.26-.14,.45-.25-.03,.33-.05,.57-.08,.84,.16-.07,.28-.12,.43-.18,.02,.12,.04,.2,.05,.28,.19,1.46,.83,2.63,2.17,3.32,.91,.46,1.89,.59,2.89,.56,.12,0,.23-.13,.34-.21,.19-.13,.36-.29,.56-.4,.13-.07,.3-.08,.48-.13,.01,.01,.06,.07,.08,.09,.26-.13,.49-.24,.75-.38,.04,.05,.11,.12,.18,.2,.07-.09,.13-.16,.19-.24,0,.04,0,.09,.01,.13h.95s.06,.1,.12,.2c.08-.11,.14-.2,.17-.25,.27,.11,.5,.21,.77,.32,.01-.03,.06-.12,.12-.24,.11,.19,.17,.29,.22,.39,.35-.33,.56,0,.66,.21,.14,.3,.33,.33,.59,.3,1.5-.16,2.72-.83,3.52-2.13,.36-.59,.6-1.25,.91-1.9,.1,.06,.22,.14,.36,.22-.02-.3-.03-.55-.04-.88,.19,.12,.3,.19,.41,.26v-.84c.14,.05,.24,.09,.39,.14v-.75c.14,.06,.24,.11,.37,.17v-.77c.14,.07,.25,.13,.4,.2-.02-.28-.04-.5-.07-.8,.19,.11,.3,.18,.33,.2,.13-.4,.26-.79,.4-1.19,.12,.05,.21,.09,.33,.14-.02-.29-.03-.55-.05-.88,.18,.13,.3,.21,.45,.32v-.89c.14,.07,.25,.13,.42,.22v-.81c.19,.15,.3,.25,.46,.38-.03-.33-.05-.61-.08-.92,.17,.05,.27,.08,.38,.12,.01-.22,.03-.41,.04-.6,.14,.04,.24,.07,.35,.1,.02-.24,.03-.45,.04-.67,.15,.06,.24,.1,.32,.14,.04-.26,0-.59,.13-.68,.34-.24,.63-.49,.68-.92,.15-1.36,.42-2.72,.4-4.07-.04-2.22-.26-4.45-.41-6.67-.06-.01-.12-.02-.18-.03-.2,.24-.41,.48-.61,.72,.45-1.06,.57-2.15,.65-3.33-.21,.22-.34,.37-.54,.58,1.7-7.5-3.24-12.16-7.59-13.81-.16,1.8-.64,2.63-2.16,3.34-.75,.35-1.59,.58-2.41,.71-2.35,.36-4.67,.04-6.98-.45-.48-.1-.96-.24-1.44-.35,0-.05,.01-.09,.02-.14,2.31-.18,4.63-.31,6.78-1.31-1.84,.45-3.69,.63-5.56,.53,0-.05-.01-.09-.02-.14,.52-.17,1.03-.33,1.64-.53-1.01-.18-1.89-.35-2.78-.49-.17-.03-.4,.03-.55,.13-1.9,1.29-3.44,2.91-4.45,5-1.4,2.89-1.69,5.96-1.44,9.12,.04,.46,.1,.93,.05,1.38-.11,.91-.33,1.8-.44,2.71-.28,2.4-.22,4.79,.26,7.17,.02,.12,.1,.34,.14,.33,.34-.01,.21,.21,.21,.37,0,.04,.01,.08,.02,.13,.1-.05,.18-.09,.3-.16,.01,.26,.03,.47,.04,.68,.13-.04,.23-.07,.38-.12-.02,.29-.03,.54-.05,.81,.13-.08,.24-.15,.43-.27-.02,.3-.03,.53-.04,.76,.14-.07,.25-.13,.43-.22-.03,.34-.05,.58-.07,.87,.16-.1,.29-.17,.46-.27v.84c.13-.11,.24-.19,.42-.34v.88c.17-.09,.29-.15,.46-.24-.02,.3-.04,.55-.06,.82,.14-.04,.25-.07,.4-.11,.08,.42,.16,.8,.24,1.17,0,.01,.02,.02,.03,.03,.12-.06,.23-.11,.4-.19-.03,.3-.05,.53-.08,.79,.15-.08,.27-.14,.41-.21v.75Z" fill="#0d0d0d"/><path d="M38.36,47.68c-.42-.53-.83-1.07-1.28-1.58-.75-.87-1.69-1.33-2.85-1.4-2.23-.12-4.46-.19-6.68,.12-1.34,.18-2.23,1.07-2.99,2.13-.12,.17-.23,.36-.34,.53-.05-.01-.1-.02-.15-.03,.04-.49,.05-.99,.12-1.48,.4-2.54,1.75-4.27,4.24-5,.21-.06,.43-.09,.62-.19,.38-.19,.66-.06,.93,.2,.56,.55,2.03,.69,2.63,.19,.47-.38,.9-.42,1.45-.23,2.72,.92,4.04,2.9,4.34,5.69,.04,.34,.04,.68,.06,1.02-.04,0-.07,.01-.11,.02Z" fill="#0d0d0d"/><path d="M30.42,31.22c-.71,.68-1.58,.92-2.55,.82-.96-.1-1.79-.54-2.59-1.05-1.15-.74-2.38-1.27-3.77-1.09-.72,.09-1.42,.29-2.13,.45-.19,.04-.37,.1-.62,.06,.13-.18,.25-.37,.4-.53,1.64-1.77,4.47-2.07,6.58-.69,.33,.22,.66,.45,.98,.67,.97,.68,2.06,1.04,3.23,1.16,.14,.01,.29,.04,.43,.06l.04,.14Z" fill="#0d0d0d"/><path d="M32.95,31.17c.77,0,1.4,.07,2.01-.02,.63-.09,1.24-.31,1.85-.49,1.17-.35,2.31-.82,3.5-1.05,1.43-.28,2.71,.22,3.72,1.3,.15,.16,.27,.36,.5,.67-.28-.08-.42-.1-.55-.15-1.27-.51-2.54-.5-3.81,0-1.2,.48-2.38,1-3.69,1.09-.99,.07-1.96-.03-2.8-.62-.27-.19-.47-.47-.74-.74Z" fill="#0d0d0d"/><path d="M28.45,47.47c1.91-.41,3.77-.41,5.76,.02-.39,.36-.68,.65-.98,.92-.54,.49-1.09,.97-1.63,1.45-.18,.16-.33,.26-.55,.06-.82-.75-1.65-1.48-2.47-2.22-.04-.04-.06-.11-.12-.22Z" fill="#0d0d0d"/></g></svg>