<svg width="172" height="50" viewBox="0 0 172 50" fill="none" xmlns="http://www.w3.org/2000/svg">
<path d="M62.0961 48.2843C60.8822 47.8248 59.9467 47.3001 59.2205 46.6715C58.292 45.8678 58.1062 45.5385 58.1011 44.6874C58.0975 44.077 58.1356 43.9294 58.5195 43.0646C58.7519 42.5413 59.1024 41.8831 59.2984 41.6018C59.7888 40.8984 61.8789 38.8824 62.8573 38.1691C63.6973 37.5567 64.0046 37.4691 64.0563 37.8275C64.0775 37.9746 63.8914 38.2008 63.2924 38.7557C61.1455 40.7448 60.2916 41.7123 59.7262 42.796C59.5017 43.2261 59.3639 44.3958 59.4852 44.8403C59.6563 45.467 60.3543 46.1183 61.3614 46.5909C62.476 47.114 63.4645 47.4265 64.0087 47.4279C65.1144 47.4308 66.5831 46.0883 68.6848 43.1534C69.7992 41.5972 72.0985 37.751 73.1636 35.6613C74.6498 33.1028 75.6328 31.0073 76.5008 28.2535C76.6437 27.8038 76.6681 27.6123 76.5968 27.4999C76.4285 27.2346 75.9978 27.2716 75.317 27.6098C74.4668 28.0322 73.3648 28.3901 73.1211 28.323C72.5232 28.1585 72.2508 27.8284 72.2508 27.2684C72.4456 26.479 72.9177 26.1076 73.2393 25.3246C73.2393 24.9023 72.8711 24.8065 72.1545 25.0423C71.9356 25.1143 71.0286 25.3166 70.139 25.4918C66.8701 26.1356 66.7212 26.1886 63.5222 27.8495C62.0239 28.6274 61.5964 28.812 61.2936 28.812C60.8615 28.812 60.5279 28.6625 60.209 28.3257C59.9984 28.1034 59.9843 28.0292 59.9843 27.1427C59.9843 26.3254 60.0129 26.1416 60.1948 25.7908C60.4447 25.3087 60.4279 24.9675 60.1522 24.9287C60.0192 24.91 59.7556 25.0863 59.2908 25.5049C57.0489 27.5239 55.5755 28.7312 54.5289 29.407C53.0183 30.3823 52.8678 30.444 52.4784 30.2481C52.3137 30.1653 52.0993 29.9903 52.002 29.8593C51.8416 29.6434 51.8358 29.5835 51.9397 29.2172C52.0315 28.8938 52.032 28.7866 51.9419 28.6797C51.7863 28.4946 51.6474 28.5104 50.7732 28.812C49.3073 29.3179 48.5417 29.0351 48.8015 28.0836C48.8554 27.886 48.8745 27.626 48.8439 27.5057C48.7945 27.3118 48.7505 27.2918 48.4552 27.3289C48.2721 27.3519 47.4145 27.6762 46.5496 28.0494C44.8286 28.7921 43.4339 29.2553 42.9185 29.2553C42.6839 29.2553 42.521 29.1898 42.3595 29.0304C42.1645 28.8381 42.1402 28.7554 42.1911 28.4579C42.338 27.6002 41.9665 27.5275 40.9756 28.2201C40.6042 28.4797 40.099 28.8064 39.8529 28.9461C39.6068 29.0859 39.183 29.3445 38.9111 29.5209C37.931 30.1568 36.603 30.851 36.3667 30.851C36.0549 30.851 35.7658 30.5628 35.7664 30.2526C35.7675 29.7538 35.9619 29.3521 36.5113 28.714C37.5905 27.3959 38.52 25.9491 39.7199 24.7379C40.837 23.6282 42.1054 23.0996 42.5974 23.5389C43.0379 23.9321 42.6387 24.5177 41.6309 24.9564C41.0132 25.2253 40.4898 25.7166 39.9746 26.5111C39.621 27.0459 39.0126 27.5079 38.8535 28.0578C39.0768 28.6319 41.1176 27.311 43.4493 25.0833C44.6497 23.9363 45.036 23.7201 45.4297 23.9745C45.5514 24.0532 45.6504 24.1864 45.6498 24.2706C45.6476 24.5727 45.2858 25.5575 44.9771 26.1021C44.567 26.8255 44.5592 27.2756 44.9544 27.4194C45.1333 27.4845 46.1491 27.1959 46.6816 26.9287C47.6807 26.4272 50.8815 25.3407 51.2584 25.3751C51.6929 25.4148 51.754 25.6397 51.476 26.1758C51.1648 26.7756 51.1411 26.8657 51.2314 27.1055C51.339 27.3908 51.6446 27.3646 52.897 26.9627C53.7968 26.6739 54.1216 26.5146 54.9758 25.9432C55.5327 25.5707 56.0685 25.2659 56.1665 25.2659C56.5393 25.2659 56.8385 25.8109 56.6355 26.12C56.5992 26.1753 56.379 26.3086 56.1463 26.4162C55.2319 26.8389 54.5488 27.7482 55.1457 27.7482C55.3263 27.7482 55.5684 27.5642 56.1404 26.9922C56.579 26.5536 57.0694 26.156 57.3083 26.0452C60.8597 23.4651 64.0034 19.4811 66.8643 16.9483C67.6916 16.2159 68.2667 15.1116 69.1161 14.5319C69.9407 13.9794 70.4535 13.9758 70.4535 14.5224C70.4535 14.6912 70.2696 14.9237 69.7435 15.4203C68.6586 16.4443 66.8204 18.3793 66.3908 18.9494C66.1795 19.2298 65.7404 19.7608 65.4149 20.1294C64.8318 20.7897 63.283 23.0226 62.9282 23.7145C62.6928 24.1735 62.186 25.7391 62.186 26.0073C62.186 26.3357 62.3696 26.7689 62.549 26.8636C62.9029 27.0504 63.3986 26.9573 64.1695 26.5592C64.586 26.344 65.0051 26.0652 65.1008 25.9396C65.2693 25.7185 65.2699 25.6959 65.1189 25.2232C64.9688 24.7536 64.9694 24.7206 65.1328 24.3578C65.3553 23.8639 66.2371 22.7795 66.9275 22.1509C67.5043 21.6257 69.0263 20.8167 69.6562 20.7005C70.049 20.628 70.4164 20.7919 70.7573 21.1915C71.2029 21.714 71.0282 22.2984 70.1164 23.3354C69.9139 23.5657 69.7216 23.8368 69.689 23.938C69.5651 24.3232 70.0317 24.4997 70.6049 24.2844C70.744 24.2321 71.2016 24.1508 71.6217 24.1037C72.0418 24.0565 72.9112 23.9022 73.5538 23.7607C75.6356 23.3022 76.1337 23.2293 76.3845 23.3462C76.5494 23.4231 76.6091 23.5205 76.6091 23.7125C76.6091 23.9343 76.5068 24.0501 75.9352 24.4751C75.1151 25.0848 74.3468 25.8737 74.2668 26.1883C74.1925 26.4804 74.3545 26.6844 74.6608 26.6844C75.7261 26.3649 76.9134 26.0063 77.7136 25.3239C78.3637 24.7619 78.9717 24.3794 79.2149 24.3794C79.447 24.3794 79.6196 24.5386 79.6196 24.7526C78.9888 26.4629 78.0873 28.317 77.5565 29.5656C77.1311 30.5668 76.1722 32.456 75.6374 33.3464C74.4048 35.4971 73.5207 37.3688 72.2517 39.3174C70.4 42.2044 67.3041 47.3294 64.2755 48.3847C63.4435 48.649 63.0066 48.6289 62.0961 48.2843V48.2843ZM67.9398 24.1447C68.3075 23.9029 68.9318 23.287 69.0678 23.0319C69.4621 22.2921 68.7347 21.9898 67.9611 22.5719C67.268 23.0934 66.9451 23.8312 67.2697 24.1514C67.4509 24.3302 67.6609 24.328 67.9398 24.1447V24.1447ZM19.0872 37.2773C18.8909 36.9819 18.952 36.7234 19.4571 35.7124C19.8729 34.8799 20.2994 34.3524 20.8095 34.0398C23.3357 31.1393 24.4061 27.921 26.374 24.8675C26.7916 24.3089 26.7282 23.9323 26.1869 23.7561C25.4451 23.5146 24.0695 23.8049 22.5777 24.5178C21.2803 25.1378 20.7344 25.6299 20.5895 26.3101C20.4725 26.9186 20.0528 27.4658 19.4364 27.5709C19.1589 27.5709 18.9395 27.2654 18.9448 26.8864C18.9508 26.4538 19.067 26.1596 19.4658 25.5669C21.4158 23.6108 24.3722 22.3696 26.6901 22.1673C27.9237 22.0615 28.0475 21.974 28.7649 20.7C30.353 17.8407 31.7623 15.9024 32.7726 13.1649C33.5443 11.0597 34.6428 9.85523 35.3652 10.3222C35.7141 10.5477 35.6571 10.945 35.1258 11.9918C33.3204 15.051 31.6041 18.3471 29.8606 21.0864C29.2834 21.9712 29.41 22.4529 30.2959 22.7432C31.1027 23.0075 32.0738 23.4904 32.1755 23.6778C32.2998 23.907 32.1086 24.223 31.6947 24.472C30.505 25.0424 29.7142 24.0864 28.453 24.0585C28.1567 24.1318 27.7086 24.8034 26.6604 26.745C26.244 27.5162 25.7099 28.4663 25.4736 28.8564C25.0491 29.5569 24.2583 31.0188 23.6514 32.2252C22.9617 33.5959 21.3153 36.3099 21.0089 36.5811C20.896 36.6811 20.5644 36.9288 20.2722 37.1315C19.6463 37.5656 19.3064 37.6074 19.0872 37.2773V37.2773ZM6.86754 34.9754C5.44137 34.2356 1.99639 29.2124 1.96066 28.0225C1.97071 27.3044 2.92882 25.8865 3.40403 25.8865C3.6864 25.8865 3.89279 26.1975 3.82831 26.5257C3.63599 27.5049 3.64692 27.6062 4.03836 28.4709C4.70196 30.0073 7.20081 34.2837 8.5943 34.0031C9.16957 33.8607 9.94739 32.6645 10.6561 30.8325C10.8227 30.4018 11.2211 29.4589 11.5414 28.7372C13.4214 23.3995 15.4199 17.7219 16.7163 12.7027C17.835 8.91857 18.6138 4.20993 22.5973 2.12361C23.2772 1.79448 24.4356 1.62841 25.0064 1.77827C25.7054 1.9618 26.5815 2.48344 27.0764 3.01073C28.3963 4.41715 28.8535 5.63047 28.8422 7.697C28.837 8.63844 28.4946 10.6112 28.2803 10.9338C28.0891 11.2218 27.7725 11.2428 27.5348 10.9834C27.3809 10.8155 27.3631 10.643 27.3589 9.27684C27.3533 7.4883 27.1848 6.64423 26.6072 5.51092C25.8199 4.213 23.8452 2.71422 22.4365 3.48816C21.2979 4.14641 19.8705 6.35897 19.2648 8.40429C17.6622 13.7025 15.8638 19.259 14.6084 23.0496C14.0402 25.1042 13.225 27.1069 12.4912 29.078C11.4775 31.81 10.5678 33.6061 9.84643 34.3002C8.93827 35.174 7.7975 35.4326 6.86754 34.9754V34.9754ZM88.5675 33.3713C88.2308 33.0391 88.4184 32.6684 89.3538 31.8182C89.7395 31.4675 90.2446 30.9104 90.4763 30.58C92.5052 27.7798 95.3536 25.1886 97.1065 22.5939C98.5307 20.4858 106.33 12.1793 106.094 10.3256C105.917 9.32614 105.903 9.42112 106.281 9.06404C107.296 8.37605 108.515 6.72103 109.701 6.70247C110.024 6.90189 109.941 7.23486 109.266 8.44882C108.133 10.9666 100.463 19.2208 100.396 20.2895C100.376 20.7221 100.582 20.6094 100.962 20.604C102.181 20.4269 103.342 19.8376 104.467 19.3439C104.912 19.1481 105.943 18.7009 106.759 18.3502C107.574 17.9995 109.158 17.2372 110.279 16.6561C111.399 16.0751 112.469 15.5366 112.656 15.4594C113.095 15.2786 117.385 12.7216 117.73 12.4357C118.02 12.1949 118.081 11.8794 117.838 11.8794C117.556 11.8794 115.728 12.5083 115.379 12.7256C115.19 12.8437 114.594 13.1553 114.056 13.418C113.518 13.6807 112.657 14.1772 112.142 14.5213C111.138 15.1934 110.791 15.3343 110.577 15.1586C110.182 14.8357 110.68 14.3776 111.917 13.9244C112.456 13.727 113.022 13.4638 113.175 13.3394C113.654 12.9505 114.866 12.1792 115.465 11.883C116.444 11.3983 118.45 10.6692 119.235 10.513C119.647 10.431 120.184 10.286 120.429 10.1908C121.219 9.88361 121.766 10.0266 121.766 10.5402C121.766 10.9355 120.343 12.0754 118.711 12.988C118.29 13.2229 117.583 13.6444 117.138 13.9247C116.693 14.205 115.612 14.7938 114.736 15.2331C113.556 15.8364 112.257 16.5576 111.207 17.0454C109.913 17.6448 109.086 17.9992 106.938 18.8745C106.568 19.0255 105.88 19.3682 105.411 19.6359C104.941 19.9036 104.072 20.3111 103.479 20.5414C102.057 21.0931 101.636 21.4892 100.906 22.961C100.282 24.2171 100.094 24.7475 100.083 25.278C100.072 25.8121 100.28 26.119 100.813 26.3543C101.23 26.8382 106.41 26.4006 108.558 25.3494C109.68 24.7899 110.173 24.7787 110.173 25.3125C110.173 25.5596 109.9 25.7948 109.185 26.1619C108.864 26.3269 108.409 26.6497 108.174 26.8792C107.83 27.2153 107.747 27.3556 107.747 27.6001C107.747 28.2481 108.272 28.2872 109.949 27.7641C111.066 27.4159 111.156 27.3695 111.971 26.7215C113.033 25.8774 113.351 25.6767 113.631 25.8693C114.206 26.2653 113.467 26.925 113.239 27.1592C112.248 28.1732 111.97 28.6869 112.258 28.9716C112.587 29.2961 113.142 29.0234 115.498 27.3784C116.787 26.478 119.491 24.265 121.092 23.0084C122.959 21.5423 124.863 19.8991 126.173 18.3074C127.355 16.8719 129.351 14.9666 129.889 14.7733C130.152 14.6786 130.483 14.9394 130.483 15.242C130.483 15.5923 129.608 16.7126 128.695 17.5316C127.807 18.3283 127.04 19.2652 125.937 20.8977C125.469 21.5913 124.838 22.4838 124.534 22.881C124.007 23.4654 123.745 23.877 124.279 24.4817C124.523 24.8231 124.603 25.0604 124.738 25.8559C124.812 26.7043 125.048 27.5585 125.936 27.8345C126.776 28.0664 127.529 27.7378 130.303 25.9301C131.217 25.3341 132.329 24.6467 132.774 24.4025C133.77 23.8557 135.742 23.1748 136.084 23.2595C136.35 23.3254 136.594 23.7148 136.594 24.0741C136.594 24.6798 136.072 26.0473 135.497 26.9455C135.102 27.5642 135.19 27.9268 135.735 27.9242C136.063 27.9228 137.559 27.2266 138.436 26.6671C138.782 26.4464 139.525 25.9241 140.087 25.5064C141.229 24.658 142.03 24.2021 142.378 24.2021C142.646 24.2021 142.919 24.541 142.832 24.7654C142.801 24.8451 142.343 25.2254 141.814 25.6104C140.792 26.3549 140.278 26.8576 140.278 27.113C140.278 27.4989 140.677 27.5249 141.536 27.3467C143.044 27.0339 144.585 26.7613 146.074 26.5062C147.347 26.2897 148.909 25.8705 149.562 25.5703C150.031 25.3549 150.394 25.302 150.576 25.4224C150.762 25.5445 150.862 25.8384 150.786 26.0365C150.692 26.2815 150.47 26.4205 149.614 26.7678C149.036 27.0023 148.824 27.1529 148.243 27.7412C147.502 28.4929 147.403 28.7465 147.783 28.9174C148.085 29.053 149.056 28.6982 151.107 27.7031C152.325 27.1118 152.834 26.8055 153.623 26.1896C155.715 24.5551 158.911 21.1179 161.006 18.2494C162.508 16.3523 163.979 14.2054 165.266 12.3053C166.383 10.7449 167.464 8.62936 168.576 7.45577C169.421 6.56746 169.902 6.35126 170.221 6.7154C170.601 7.14909 170.481 7.59015 169.638 8.86035C169.281 9.39685 168.837 10.0662 168.65 10.3479C165.449 15.524 161.52 19.4739 157.983 23.9805C157.225 24.9467 155.776 26.0689 155.645 27.3094C155.645 27.9115 156.059 27.987 157.351 27.6204C157.804 27.4916 158.364 27.3496 158.595 27.3047C158.826 27.2599 159.5 27.1222 160.093 26.9988C161.523 26.7013 163.097 26.678 163.373 26.9503C163.678 27.2513 163.598 27.5136 162.988 28.2108C162.049 29.2831 162.025 29.3228 162.025 29.808C162.025 30.2817 162.163 30.4666 162.956 31.0583C163.239 31.2694 163.289 31.355 163.266 31.5902C163.225 32.0031 162.809 32.1811 161.89 32.1787C160.849 32.1287 159.919 31.7778 159.689 30.7646C159.689 30.3917 160.312 29.3574 160.855 28.8277C161.428 28.2701 161.524 27.9996 161.211 27.8342C160.951 27.6966 160.159 27.8074 159.215 28.1133C158.782 28.2538 158.358 28.3693 158.272 28.3699C158.186 28.3705 157.805 28.4689 157.426 28.5886C156.278 28.8719 153.326 30.1534 153.387 28.2041C153.41 27.442 153.212 27.4142 152.22 28.0398C151.954 28.2079 151.291 28.5646 150.747 28.8325C148.447 29.9659 146.914 30.4964 145.94 30.4964C145.547 30.4964 145.436 30.4568 145.214 30.2373C145.067 30.093 144.951 29.8826 144.951 29.7626C144.951 29.644 145.112 29.2332 145.308 28.8497C145.627 28.2279 145.652 28.1328 145.542 27.9724C145.356 27.701 144.492 27.7553 142.949 28.1352C140.233 28.8044 138.857 29.0855 138.6 29.0235C138.118 28.8491 137.723 28.6041 137.233 28.4574C137.123 28.4574 136.606 28.6409 136.083 28.8652C134.473 29.5568 133.26 29.6308 132.779 29.0668C132.475 28.7109 132.49 28.4995 132.858 27.9216C133.891 26.2993 134.437 25.3613 134.437 25.2092C134.437 25.1137 134.388 24.9876 134.329 24.9291C134.021 24.6253 133.414 24.9343 130.393 26.9327C127.352 28.9444 125.732 29.6225 124.288 29.4895C123.489 29.4159 123.133 29.5447 122.371 30.1844C121.554 30.8699 121.078 31.1885 120.283 31.5828C119.355 32.0431 118.983 32.1361 118.588 32.0074C117.768 31.7406 117.801 31.0204 118.692 29.7252C118.886 29.4424 119.178 28.9517 119.34 28.6347C119.501 28.3178 119.794 27.8248 119.991 27.5392C120.429 26.9026 121.676 24.4886 121.676 24.2781C121.676 24.0082 121.334 23.9886 120.974 24.2378C118.66 25.9506 116.576 27.7829 114.095 29.3778C112.492 30.3977 111.187 30.9254 110.557 30.8087C110.12 30.7278 109.743 30.3366 109.671 29.8871C109.555 29.1751 109.405 29.1308 108.086 29.419C106.654 29.7316 105.936 29.6484 105.516 29.1211C105.272 28.8159 105.269 28.5064 105.504 27.9822C105.78 27.383 105.433 27.2022 105.02 27.2459C102.938 27.2355 98.3371 29.1031 97.8629 25.954C97.79 25.4697 98.2554 24.311 98.7372 23.3963C99.163 22.588 99.2173 22.4308 99.1278 22.2659C98.9193 21.8815 98.5589 22.1101 97.8545 23.0737C96.0853 25.208 94.215 27.6411 92.5007 29.4475C91.7574 30.228 91.6197 30.4586 91.5304 31.0727C91.4737 31.4619 91.4039 31.5736 90.9571 31.989C90.2727 32.6252 89.0543 33.5106 88.8632 33.5106C88.7783 33.5106 88.6452 33.4479 88.5675 33.3713H88.5675ZM121.317 29.7291C122.121 29.0386 122.305 28.7726 122.305 28.3032C122.305 28.0118 122.251 27.8642 122.085 27.6999C121.536 27.1671 121.059 28.0914 120.91 28.4035C120.748 28.7501 120.51 29.1711 120.382 29.339C120.162 29.627 120.076 30.0404 120.208 30.1714C120.39 30.3509 120.77 30.1994 121.317 29.7291V29.7291ZM158.144 17.126C157.832 16.8911 157.5 16.56 157.406 16.3902C157.254 16.1148 157.249 16.0535 157.361 15.82C157.612 15.2995 159.296 14.9497 159.689 15.3369C159.888 15.5337 159.904 15.7369 159.782 16.5668C159.621 17.6625 159.094 17.8425 158.144 17.126V17.126Z" fill="#F2F2F2"/>
</svg>
